#tb 0: 1/50
0,          0,          0,        1,   149760, 0xa329afaa
0,          1,          1,        1,   149760, 0xb326c405
0,          2,          2,        1,   149760, 0x7834b936
0,          3,          3,        1,   149760, 0xb46dbb3e
0,          4,          4,        1,   149760, 0xcf1ea94c
0,          5,          5,        1,   149760, 0x4eac94fa
0,          6,          6,        1,   149760, 0xbfdb808f
0,          7,          7,        1,   149760, 0x62806469
0,          8,          8,        1,   149760, 0x74420022
0,          9,          9,        1,   149760, 0x91e97911
0,         10,         10,        1,   149760, 0x4903fc4a
0,         11,         11,        1,   149760, 0x31a09d4e
0,         12,         12,        1,   149760, 0xeb404776
0,         13,         13,        1,   149760, 0xadd2ee9e
0,         14,         14,        1,   149760, 0x23e7a8b7
0,         15,         15,        1,   149760, 0x76ac5fb9
0,         16,         16,        1,   149760, 0x32770d4f
0,         17,         17,        1,   149760, 0x208ddbd0
0,         18,         18,        1,   149760, 0xf2559760
0,         19,         19,        1,   149760, 0x3bc65f9e
0,         20,         20,        1,   149760, 0x9f10263b
0,         21,         21,        1,   149760, 0x3978edd8
0,         22,         22,        1,   149760, 0x7afde5b9
0,         23,         23,        1,   149760, 0xc01699f8
0,         24,         24,        1,   149760, 0x5056cdeb
0,         25,         25,        1,   149760, 0xf2275141
0,         26,         26,        1,   149760, 0xe22efce6
0,         27,         27,        1,   149760, 0x4331e359
0,         28,         28,        1,   149760, 0x9a5e031d
0,         29,         29,        1,   149760, 0x8982a88f
0,         30,         30,        1,   149760, 0x7e27f127
0,         31,         31,        1,   149760, 0x1a5a422c
0,         32,         32,        1,   149760, 0x39328011
0,         33,         33,        1,   149760, 0x26c335ca
0,         34,         34,        1,   149760, 0x6429d5e2
0,         35,         35,        1,   149760, 0x7cf52425
0,         36,         36,        1,   149760, 0x1762186c
0,         37,         37,        1,   149760, 0xe0e9370f
0,         38,         38,        1,   149760, 0x1f0a3f7a
0,         39,         39,        1,   149760, 0xf19e30be
0,         40,         40,        1,   149760, 0x14b9a723
0,         41,         41,        1,   149760, 0x3514f916
0,         42,         42,        1,   149760, 0x21dd1e9a
0,         43,         43,        1,   149760, 0x02b2f69c
0,         44,         44,        1,   149760, 0xec1fa93a
0,         45,         45,        1,   149760, 0xad45ea1f
0,         46,         46,        1,   149760, 0x22092591
0,         47,         47,        1,   149760, 0x733b205b
0,         48,         48,        1,   149760, 0xcd85ef6a
0,         49,         49,        1,   149760, 0x5d3afdfb
0,         50,         50,        1,   149760, 0xc7200b59
0,         51,         51,        1,   149760, 0xf2c74f38
0,         52,         52,        1,   149760, 0x8f0b0a60
0,         53,         53,        1,   149760, 0x875a0fa6
0,         54,         54,        1,   149760, 0x03ac9cbc
0,         55,         55,        1,   149760, 0x16830708
0,         56,         56,        1,   149760, 0xabe709cc
0,         57,         57,        1,   149760, 0xc5019f66
0,         58,         58,        1,   149760, 0x6355f5e2
0,         59,         59,        1,   149760, 0x7770586e
0,         60,         60,        1,   149760, 0x482aa304
0,         61,         61,        1,   149760, 0x9b90ef01
0,         62,         62,        1,   149760, 0x22153180
0,         63,         63,        1,   149760, 0x23876fda
0,         64,         64,        1,   149760, 0xfa9d938d
0,         65,         65,        1,   149760, 0x5731d140
0,         66,         66,        1,   149760, 0x734ce2c1
0,         67,         67,        1,   149760, 0x74dafecd
0,         68,         68,        1,   149760, 0x33b4ff4e
0,         69,         69,        1,   149760, 0xcd8ef975
0,         70,         70,        1,   149760, 0xc97cd0ee
0,         71,         71,        1,   149760, 0x88faa07a
0,         72,         72,        1,   149760, 0x8c174fe9
0,         73,         73,        1,   149760, 0x9c60e74e
0,         74,         74,        1,   149760, 0x7faf7160
0,         75,         75,        1,   149760, 0x94c70d14
0,         76,         76,        1,   149760, 0x8e49a6b1
0,         77,         77,        1,   149760, 0x67255170
0,         78,         78,        1,   149760, 0xeb1d1a49
0,         79,         79,        1,   149760, 0x9413051f
0,         80,         80,        1,   149760, 0x43bce110
0,         81,         81,        1,   149760, 0x76c821ec
0,         82,         82,        1,   149760, 0x21487745
0,         83,         83,        1,   149760, 0xb8776615
0,         84,         84,        1,   149760, 0x1f2ffc65
0,         85,         85,        1,   149760, 0x3f1eb53d
0,         86,         86,        1,   149760, 0x9d15c8e0
0,         87,         87,        1,   149760, 0x44e77332
0,         88,         88,        1,   149760, 0x629bb845
0,         89,         89,        1,   149760, 0x80ea02e8
0,         90,         90,        1,   149760, 0x405d1653
0,         91,         91,        1,   149760, 0x0ee8fccd
0,         92,         92,        1,   149760, 0x4444fe13
0,         93,         93,        1,   149760, 0x7493f631
0,         94,         94,        1,   149760, 0xa6c1f737
0,         95,         95,        1,   149760, 0xb84b055d
